HIERARCHY
ROOT root
{
	OFFSET	0	13.1	24.9
	CHANNELS 6  Xposition Yposition Zposition Xrotation Yrotation Zrotation
	JOINT spine_1
	{
		OFFSET	0	9.99999	0
		CHANNELS 3  Xrotation Yrotation Zrotation
		JOINT spine_2
		{
			OFFSET	0	112	-10
			CHANNELS 3  Xrotation Yrotation Zrotation
			JOINT spine_3
			{
				OFFSET	0	206.5	19.3
				CHANNELS 3  Xrotation Yrotation Zrotation
				JOINT spine_4
				{
					OFFSET	0	110.4	14.6
					CHANNELS 3  Xrotation Yrotation Zrotation
					JOINT neck_1
					{
						OFFSET	0	71.8	-50.3
						CHANNELS 3  Xrotation Yrotation Zrotation
						JOINT neck_2
						{
							OFFSET	0	86.2	-25.8
							CHANNELS 3  Xrotation Yrotation Zrotation
							JOINT head_ee
							{
								OFFSET	0	179.8	-8.7
								CHANNELS 3  Xrotation Yrotation Zrotation
								End Site
								{
									OFFSET	1	0	0
								}
							}
						}
					}
					JOINT left_clavicle
					{
						OFFSET	-43.2	22.4	-70.8
						CHANNELS 3  Xrotation Yrotation Zrotation
						JOINT left_shoulder
						{
							OFFSET	-93.9	-5.79999	48.7
							CHANNELS 3  Xrotation Yrotation Zrotation
							JOINT left_elbow
							{
								OFFSET	-291.4	-30.8	15.2
								CHANNELS 3  Xrotation Yrotation Zrotation
								JOINT left_lowarm_twist
								{
									OFFSET	-110.7	-3.89999	13.6
									CHANNELS 3  Xrotation Yrotation Zrotation
									JOINT left_hand
									{
										OFFSET	-110.7	-3.89999	13.6
										CHANNELS 3  Xrotation Yrotation Zrotation
										JOINT left_ee
										{
											OFFSET	-80.8	-5.10001	12.1
											CHANNELS 3  Xrotation Yrotation Zrotation
											End Site
											{
												OFFSET	1	0	0
											}
										}
									}
								}
							}
						}
					}
					JOINT right_clavicle
					{
						OFFSET	43.2	22.4	-70.8
						CHANNELS 3  Xrotation Yrotation Zrotation
						JOINT right_shoulder
						{
							OFFSET	93.9	-5.79999	48.7
							CHANNELS 3  Xrotation Yrotation Zrotation
							JOINT right_elbow
							{
								OFFSET	291.4	-30.8	15.2
								CHANNELS 3  Xrotation Yrotation Zrotation
								JOINT right_lowarm_twist
								{
									OFFSET	110.7	-3.89999	13.6
									CHANNELS 3  Xrotation Yrotation Zrotation
									JOINT right_hand
									{
										OFFSET	110.7	-3.89999	13.6
										CHANNELS 3  Xrotation Yrotation Zrotation
										JOINT right_ee
										{
											OFFSET	80.8	-5.10001	12.1
											CHANNELS 3  Xrotation Yrotation Zrotation
											End Site
											{
												OFFSET	1	0	0
											}
										}
									}
								}
							}
						}
					}
				}
			}
		}
	}
	JOINT left_hip
	{
		OFFSET	-82.8	-127.5	0.300001
		CHANNELS 3  Xrotation Yrotation Zrotation
		JOINT left_knee
		{
			OFFSET	-28.2	-396.7	2.2
			CHANNELS 3  Xrotation Yrotation Zrotation
			JOINT left_ankle
			{
				OFFSET	-11.7	-411.3	35.4
				CHANNELS 3  Xrotation Yrotation Zrotation
				JOINT left_toes
				{
					OFFSET	0	-60	-88.6
					CHANNELS 3  Xrotation Yrotation Zrotation
					JOINT left_foot_ee
					{
						OFFSET	-22.5	-16.5	-42.2
						CHANNELS 3  Xrotation Yrotation Zrotation
						End Site
						{
							OFFSET	1	0	0
						}
					}
				}
			}
		}
	}
	JOINT right_hip
	{
		OFFSET	82.8	-127.5	0.300001
		CHANNELS 3  Xrotation Yrotation Zrotation
		JOINT right_knee
		{
			OFFSET	28.2	-396.7	2.2
			CHANNELS 3  Xrotation Yrotation Zrotation
			JOINT right_ankle
			{
				OFFSET	11.7	-411.3	35.4
				CHANNELS 3  Xrotation Yrotation Zrotation
				JOINT right_toes
				{
					OFFSET	0	-60	-88.6
					CHANNELS 3  Xrotation Yrotation Zrotation
					JOINT right_foot_ee
					{
						OFFSET	22.5	-16.5	-42.2
						CHANNELS 3  Xrotation Yrotation Zrotation
						End Site
						{
							OFFSET	1	0	0
						}
					}
				}
			}
		}
	}
}
MOTION
Frames: 13
Frame Time: 0.02
2841.0294959 715.175 -1611.67228956 -2.89752461372 45.6916218381 -3.21602976722 1.82064 0.746029 4.84756 1.8336 0.436431 4.88508 1.87111 -0.441321 4.88464 1.83799 0.334705 4.89308 -12.7691 16.8028 -2.8574 -13.5662 33.7305 2.58452 -0.0 0.0 -0.0 -3.54215 22.9431 -2.25357 5.37173 -14.385 53.4378 1.89239 -43.146 0.748278 -7.7918 -0.338801 0.935958 -1.47841 17.4869 -1.8822 -0.0 0.0 -0.0 14.3188 26.1472 -28.7329 -15.9548 19.3359 -68.2996 0.295591 8.33064 -0.0215271 12.982 -0.273518 1.63225 2.48687 19.8692 -8.05856 0.0 0.0 0.0 -8.06679 41.9572 10.9192 3.03072 -0.136618 -0.444916 27.2214 -24.3315 -4.16689 -24.6746 0.0 0.0 -0.0 0.0 -0.0 21.2571 30.7677 -3.34058 -53.6954 1.55901 -7.7953 21.0895 -10.2267 2.8693 6.08498 -0.0 -0.0 0.0 0.0 0.0 
2828.27474986 712.188 -1592.329182 -2.30351855731 47.9973995235 -3.75189292162 1.82824 0.733549 4.55834 1.83969 0.442317 4.59567 1.87545 -0.383435 4.60095 1.84609 0.34722 4.60382 -13.6642 16.8556 -1.47 -14.5674 33.0294 4.21311 -0.0 0.0 -0.0 -3.94729 22.6818 -2.87858 6.70007 -14.5235 52.8641 2.08031 -45.8557 0.880029 -7.15614 -0.306415 0.861393 -1.44707 17.0609 -1.8871 -0.0 0.0 -0.0 14.2508 26.4261 -28.5376 -17.6447 18.7805 -67.3583 0.272189 7.67932 -0.0182681 13.1876 -0.274854 1.65847 2.58074 19.9519 -8.64531 0.0 0.0 0.0 -11.1495 43.1217 12.8197 2.10576 -0.0924246 -0.309888 28.0025 -23.2978 -4.22011 -24.3661 0.0 0.0 -0.0 0.0 -0.0 21.7518 27.7426 -3.24569 -48.6911 1.1101 -7.16899 17.8314 -6.75719 2.45845 4.27319 -0.0 -0.0 0.0 0.0 0.0 
2817.56230246 712.081 -1568.57156136 -0.528572337179 52.3172269253 -5.46138190861 1.58695 0.694659 4.49758 1.59811 0.407359 4.53257 1.63133 -0.426022 4.53086 1.60281 0.29413 4.54131 -15.6208 16.9244 0.452986 -16.7314 32.1554 6.67394 -0.0 0.0 -0.0 -4.25327 22.4329 -3.36792 7.74333 -15.1378 52.3059 2.34406 -49.258 1.07475 -6.15492 -0.257091 0.743241 -1.36388 16.4548 -1.65562 -0.0 0.0 -0.0 14.0723 26.6865 -28.0856 -19.0597 18.3625 -66.94 0.27198 7.67348 -0.01824 13.4144 -0.27622 1.68741 2.73488 20.3312 -9.49059 0.0 0.0 0.0 -15.3049 42.5267 15.0593 1.00583 -0.0427232 -0.148433 28.7621 -21.7409 -4.2491 -24.1765 0.0 0.0 -0.0 0.0 -0.0 22.7679 26.7856 -3.60031 -42.5619 0.63775 -6.35316 11.929 -1.28523 1.69476 1.39338 -0.0 -0.0 0.0 0.0 0.0 
2807.90547511 715.424 -1544.74051862 -0.178971933721 54.692599608 -5.71482320661 1.4723 0.827308 4.3549 1.48268 0.548793 4.3986 1.52629 -0.270176 4.42441 1.49924 0.431271 4.41164 -14.8542 16.8582 0.163055 -15.8633 32.1418 6.12457 -0.0 0.0 -0.0 -4.41383 22.7448 -3.52042 9.44009 -14.9066 52.1521 2.53761 -51.4891 1.22385 -6.55009 -0.276312 0.789976 -1.41393 15.4017 -2.44364 -0.0 0.0 -0.0 13.8724 26.6194 -27.6271 -20.1344 18.0193 -66.8522 0.254587 7.18809 -0.0159908 13.3576 -0.275889 1.68016 2.69756 19.9575 -9.42345 0.0 0.0 0.0 -16.8065 42.3511 15.9381 0.637926 -0.0267935 -0.0942264 28.7012 -21.1946 -4.22076 -24.0676 0.0 0.0 -0.0 0.0 -0.0 22.9966 24.9019 -4.62127 -37.7384 0.32919 -5.67906 10.54 -1.23764 1.50534 0.212579 -0.0 -0.0 0.0 0.0 0.0 
2787.14826451 714.114 -1527.42428933 -0.733066460331 58.2126499309 -4.5462408825 1.37022 0.660756 4.11523 1.37955 0.397785 4.14885 1.4098 -0.381406 4.15039 1.38587 0.278274 4.15856 -14.0107 16.2061 -0.268178 -14.8423 31.0896 5.19234 -0.0 0.0 -0.0 -4.38084 22.8486 -3.44905 12.9783 -15.0491 51.2355 3.16306 -57.4412 1.73351 -7.38589 -0.318024 0.888384 -1.53014 12.418 -4.54585 -0.0 0.0 -0.0 12.9863 24.1463 -25.8506 -21.8697 17.3976 -66.6775 0.242199 6.84172 -0.0144778 13.4378 -0.276355 1.6904 2.63121 19.437 -9.23178 0.0 0.0 0.0 -18.3827 42.2734 16.8752 1.38178 -0.0593614 -0.203722 29.6826 -21.6398 -4.35387 -23.5404 0.0 0.0 -0.0 0.0 -0.0 23.2672 24.2951 -5.45366 -23.5553 -0.236509 -3.58162 4.98523 3.62061 0.735545 -4.02608 0.0 0.0 0.0 0.0 0.0 
2788.1767917 714.114 -1524.62898466 -0.741677328004 58.6239563039 -4.53613304116 1.37022 0.660756 4.11523 1.37955 0.397785 4.14885 1.4098 -0.381406 4.15039 1.38587 0.278274 4.15856 -14.0107 16.2061 -0.268178 -14.8423 31.0896 5.19234 -0.0 0.0 -0.0 -4.38084 22.8486 -3.44905 12.9783 -15.0491 51.2355 3.16306 -57.4412 1.73351 -7.38589 -0.318024 0.888384 -1.53014 12.418 -4.54585 -0.0 0.0 -0.0 12.9863 24.1463 -25.8506 -21.8697 17.3976 -66.6775 0.242199 6.84172 -0.0144778 13.4378 -0.276355 1.6904 2.63121 19.437 -9.23178 0.0 0.0 0.0 -18.3827 42.2734 16.8752 1.38178 -0.0593614 -0.203722 29.6826 -21.6398 -4.35387 -23.5404 0.0 0.0 -0.0 0.0 -0.0 23.2672 24.2951 -5.45366 -23.5553 -0.236509 -3.58162 4.98523 3.62061 0.735545 -4.02608 0.0 0.0 0.0 0.0 0.0 
2775.36283039 713.533 -1520.43205797 -2.06951505376 59.3435828305 -2.92817594774 1.38551 0.686447 4.07398 1.39464 0.426042 4.10932 1.4266 -0.344987 4.11691 1.40309 0.308964 4.11976 -13.4155 16.2954 -0.0659387 -14.175 31.0923 5.22638 -0.0 0.0 -0.0 -3.89815 22.2065 -2.91636 14.9206 -14.9044 50.6119 3.50864 -60.0713 2.02904 -7.53611 -0.325674 0.906008 -1.55967 10.3186 -5.70973 -0.0 0.0 -0.0 12.6492 22.9472 -25.1881 -22.6961 17.1151 -66.664 0.253491 7.15745 -0.0158538 13.5302 -0.276873 1.70219 2.64508 19.8508 -9.12426 0.0 0.0 0.0 -18.1353 42.3396 16.3711 2.02432 -0.0886387 -0.297966 28.8984 -21.0857 -4.24002 -23.4716 0.0 0.0 -0.0 0.0 -0.0 24.1092 24.0675 -6.33851 -14.9968 -0.321672 -2.2724 3.19631 4.8203 0.476342 -6.33319 0.0 0.0 0.0 0.0 0.0 
2775.41313036 713.533 -1520.29640598 -2.07069485068 59.3629219614 -2.92680461137 1.38551 0.686447 4.07398 1.39464 0.426042 4.10932 1.4266 -0.344987 4.11691 1.40309 0.308964 4.11976 -13.4155 16.2954 -0.0659387 -14.175 31.0923 5.22638 -0.0 0.0 -0.0 -3.89815 22.2065 -2.91636 14.9206 -14.9044 50.6119 3.50864 -60.0713 2.02904 -7.53611 -0.325674 0.906008 -1.55967 10.3186 -5.70973 -0.0 0.0 -0.0 12.6492 22.9472 -25.1881 -22.6961 17.1151 -66.664 0.253491 7.15745 -0.0158538 13.5302 -0.276873 1.70219 2.64508 19.8508 -9.12426 0.0 0.0 0.0 -18.1353 42.3396 16.3711 2.02432 -0.0886387 -0.297966 28.8984 -21.0857 -4.24002 -23.4716 0.0 0.0 -0.0 0.0 -0.0 24.1092 24.0675 -6.33851 -14.9968 -0.321672 -2.2724 3.19631 4.8203 0.476342 -6.33319 0.0 0.0 0.0 0.0 0.0 
2764.86157137 714.529 -1519.48642089 -3.10939457349 60.1181544392 -1.87863102832 1.31924 0.745884 4.10808 1.32849 0.483195 4.14712 1.36514 -0.300193 4.16434 1.34113 0.36067 4.15955 -14.2763 15.4477 -2.18437 -15.1085 30.801 3.19902 -0.0 0.0 -0.0 -3.6507 21.2196 -2.77927 16.1451 -14.9022 50.4496 3.80577 -62.0404 2.2891 -7.84593 -0.341597 0.942291 -1.45419 7.52512 -6.31832 -0.0 0.0 -0.0 12.6035 22.5949 -25.115 -23.2401 17.1162 -66.7646 0.235304 6.6487 -0.0136679 14.1326 -0.279789 1.77907 2.53846 18.9278 -8.85497 0.0 0.0 0.0 -17.4275 42.3235 16.1942 3.72361 -0.171151 -0.545598 29.8485 -21.2417 -4.35752 -24.346 0.0 0.0 -0.0 0.0 -0.0 23.9643 23.924 -6.94155 -7.74493 -0.240549 -1.16337 -0.706981 4.96018 -0.106534 -8.8746 0.0 0.0 0.0 0.0 0.0 
2741.59299085 709.977 -1525.76094718 -2.24967130467 60.1650312642 -2.77818312945 1.33139 0.814542 4.07088 1.34044 0.554076 4.11436 1.38194 -0.223026 4.14545 1.35823 0.433899 4.12874 -15.2664 15.6797 -1.46603 -16.2304 30.8581 4.26871 -0.0 0.0 -0.0 -3.30492 19.8498 -2.56128 17.9996 -15.4993 50.2914 4.01812 -63.3069 2.47776 -7.95088 -0.347035 0.954563 -1.35967 5.69478 -6.53585 -0.0 0.0 -0.0 12.2964 20.7988 -24.5565 -24.5436 16.71 -67.1658 0.25093 7.08588 -0.0155364 14.1828 -0.279995 1.78548 2.50231 18.8101 -8.66879 0.0 0.0 0.0 -20.3524 41.6224 16.6905 4.00891 -0.185724 -0.586934 29.7312 -21.7248 -4.36295 -24.3295 0.0 0.0 -0.0 0.0 -0.0 24.918 23.8755 -7.66386 -0.303098 -0.012362 -0.0448707 -3.19507 5.86866 -0.486162 -11.2683 0.0 0.0 0.0 0.0 0.0 
2729.19844136 705.168 -1529.26203986 -3.17316962971 60.8072545116 -1.90330296134 1.45628 0.821163 3.99914 1.46499 0.565237 4.04319 1.50625 -0.189875 4.07803 1.48334 0.456015 4.05694 -16.2507 15.9022 -0.775445 -17.3441 30.9281 5.30957 -0.0 0.0 -0.0 -3.09076 18.8047 -2.4514 19.194 -16.481 50.0352 4.34594 -65.0647 2.77291 -7.79601 -0.339018 0.93645 -1.36629 5.43914 -6.696 -0.0 0.0 -0.0 12.2068 20.1161 -24.401 -25.644 16.5078 -67.6256 0.251985 7.11537 -0.0156667 14.2539 -0.280278 1.79456 2.49733 18.7937 -8.64326 0.0 0.0 0.0 -21.6418 41.3978 17.5405 5.67401 -0.274882 -0.826726 30.5329 -20.9128 -4.42358 -24.3584 0.0 0.0 -0.0 0.0 -0.0 25.5671 24.6319 -8.36212 4.1207 0.191491 0.603112 -3.20649 7.10513 -0.490745 -12.4102 0.0 0.0 0.0 0.0 0.0 
2712.16501263 704.776 -1531.1173887 -3.4454129307 61.2313103474 -1.47869122575 1.60078 0.803683 3.87139 1.60895 0.555902 3.91459 1.64788 -0.165551 3.95034 1.6264 0.459918 3.92701 -15.6293 16.0303 -1.14088 -16.6777 31.3556 4.83162 -0.0 0.0 -0.0 -3.09423 19.3465 -2.34894 19.5025 -16.9205 50.5777 4.17279 -64.1642 2.61647 -7.84854 -0.341732 0.942597 -1.4057 5.55997 -6.90093 -0.0 0.0 -0.0 12.1532 19.0501 -24.35 -26.2056 15.9808 -67.3887 0.269423 7.60219 -0.0179002 14.2892 -0.280414 1.79906 2.45324 18.6034 -8.43817 0.0 0.0 0.0 -22.3478 40.729 17.1897 5.52553 -0.266648 -0.805447 30.4926 -20.9594 -4.42079 -24.7035 0.0 0.0 -0.0 0.0 -0.0 26.785 24.5201 -8.96591 4.86356 0.230614 0.71033 -2.61269 6.74306 -0.398639 -12.4982 0.0 0.0 0.0 0.0 0.0 
2691.23474703 699.208 -1531.12848223 -2.70757275263 61.1111379946 -2.11135772443 1.59492 0.750445 3.773 1.60269 0.509017 3.81303 1.63745 -0.193959 3.84192 1.6171 0.414781 3.82441 -16.4731 16.2037 -0.678637 -17.6391 31.4605 5.60404 -0.0 0.0 -0.0 -3.1359 19.6078 -2.35898 19.4837 -16.9504 50.9229 4.54597 -66.0341 2.955 -7.89789 -0.344287 0.948368 -1.39738 5.12063 -7.0467 -0.0 0.0 -0.0 11.9873 18.0837 -24.0276 -26.7645 15.6027 -66.791 0.300285 8.46102 -0.0222124 14.3458 -0.280627 1.80629 2.47393 18.6331 -8.56282 0.0 0.0 0.0 -23.7019 41.0491 17.9413 4.82342 -0.228464 -0.704549 30.3535 -21.0667 -4.40904 -25.0269 0.0 0.0 -0.0 0.0 -0.0 27.8141 24.0771 -9.57862 5.31208 0.254909 0.774822 -2.06703 6.65636 -0.314859 -12.6427 0.0 0.0 0.0 0.0 0.0 
